/* XPM */
static char *result[] = {
/* columns rows colors chars-per-pixel */
"48 48 18 1 ",
"  c #9D1B30",
". c #9A3033",
"X c #A32634",
"o c #AC3131",
"O c #AF3937",
"+ c #BE4B30",
"@ c #C04D30",
"# c #C75C3C",
"$ c #CF6A3F",
"% c #4A9551",
"& c #439B53",
"* c #429C53",
"= c #DE8D59",
"- c #E49059",
"; c #E5AA77",
": c #E7AD79",
"> c #4A5181",
", c #E9CFA3",
/* pixels */
"************************************************",
"************************************************",
"************************************************",
"************************************************",
"************************************************",
"************************************************",
"**************++++++++++++++++++==**************",
"*************++++++++++++++++++=  =*************",
"************.....o+++o........=##  =************",
"***********++++++++++++++++++=;##;  =***********",
"**********++++++++++++++++++=;;##;;  =**********",
"*********++++++++++++++++++=#;;##;;;  =*********",
"********oooooooooooooooooo=;#;;##;;;#  =********",
"*******oooooooooooooooooo=;;#;;##;;;#;  =*******",
"******@@@@@@@@@@@@@@@@@@=;;;#;;##;;;#;#  =******",
"*****@@@@@@@@@@@@@@@@@@=################  =*****",
"****$$$$$$$$$$$$$$$$$$$=::::::::::::::::   =****",
"*******OOOOOOOOOOOOOOOO:::::::::::::::::O*******",
"*******O--------------O:,,,,,,,,,,,,,,,,O*******",
"*******O--------------O:>>>,,,,,,,,,,,>,O*******",
"*******O--------------O:>,,,,,,,,>,>,>,>O*******",
"*******O--------------O:>>,>,>,>,>>,,>>>O*******",
"*******O--OOOOOOOOOO--O:>,,>,>>>,>,>,>,>O*******",
"*******O--------------O:,,,,,,,,,,,,,,,,O*******",
"*******O--------------O:::::::::::::::::O*******",
"*******O--------------O-----------------O*******",
"*******O-OOOOO----OOOOO-----XXXXXXX-----O*******",
"*******O--------------O-::-XXXXXXXXX-:::O*******",
"*******O--------------O-::-XXXXXXXXX-:::O*******",
"*******O--------------O----XXXXXXXXX----O*******",
"*******OOOOOOOOOOOOOOOO----XXXXXXXXX----O*******",
"*******OOOOOOOOOOOOOOOO-::-XXXXXXXXX-:::O*******",
"*******O--------------O-::-XXXXXXXXX-:::O*******",
"*******O--------------O-::-XXXXXXXXX-:::O*******",
"*******O--------------O-::-XXXXXXXXX-:::O*******",
"*******O--------------O----XXXXXXXXX----O*******",
"*******OOOOOOOOOOOOOOOO-::-XXXXXXXXX-:::O*******",
"*******O--------------O-::-XXXXXXXXX-:::O*******",
"*******O--------------O-::-XXXXXXXXX-:::O*******",
"*******O--------------O-::-XXXXXXXXX-:::O*******",
"*******O--------------O-----------------O&******",
"*******OOOOOOOOOOOOOOOOOOOOOOOOOOOOOOOOOO%******",
"************************************************",
"************************************************",
"************************************************",
"************************************************",
"************************************************",
"************************************************"
};
