/* XPM */
static char *e0d254a2e2ec4ef689728b2ec9c478936wp9lLrXu9c36F9U[] = {
/* columns rows colors chars-per-pixel */
"48 48 33 1 ",
"  c #242120",
". c #292221",
"X c #9D1B30",
"o c #9A3033",
"O c #AC3131",
"+ c #AF3937",
"@ c #BE4B30",
"# c #AA5137",
"$ c #BA573A",
"% c #C04D30",
"& c #C1533B",
"* c #C3573B",
"= c #C4573B",
"- c #C4583B",
"; c #C65B3B",
": c #C4583C",
"> c #C65A3C",
", c #C75B3C",
"< c #C75C3C",
"1 c #CF6A3F",
"2 c #4A9551",
"3 c #439B53",
"4 c #429C53",
"5 c #DE8D59",
"6 c #E18A56",
"7 c #E28D57",
"8 c #E38E58",
"9 c #E48F59",
"0 c #E49059",
"q c #E5AA77",
"w c #E7AD79",
"e c #4A5181",
"r c #E9CFA3",
/* pixels */
"444444444444444444444444444444444444444444444444",
"444444444444444444444444444444444444444444444444",
"444444444444444444444444444444444444444444444444",
"444444444444444444444444444444444444444444444444",
"444444444444444444444444444444444444444444444444",
"444444444444444444444444444444444444444444444444",
"44444444444444@@@@@@@@@@@@@@@@@@5544444444444444",
"4444444444444@@@@@@@@@@@@@@@@@@5XX54444444444444",
"444444444444oooooO@@@Ooooooooo5<<XX5444444444444",
"44444444444@@@@@@@@@@@@@@@@@@5q<<qXX544444444444",
"4444444444@@@@@@@@@@@@@@@@@@5qq<<qqXX54444444444",
"444444444@@@@@@@@@@@@@@@@@@5<qq<<qqqXX5444444444",
"44444444OOOOOOOOOOOOOOOOOO5q<qq<<qqq<XX544444444",
"4444444OOOOOOOOOOOOOOOOOO5qq<qq<<qqq<qXX54444444",
"444444%%%%%%%%%%%%%%%%%%5qqq<qq<<qqq<q<XX5444444",
"44444%%%%%%%%%%%%%%%%%%5<<<<<<<<<<<<<<<;XX544444",
"444411111111111111111115wwwwwwwwwwwwwwwwXXX54444",
"4444444++++++++++++++++wwwwwwwwwwwwwwwww+4444444",
"4444444+00000000000000+wrrrrrrrrrrrrrrrr+4444444",
"4444444+00000000000000+weeerrrrrrrrrrrer+4444444",
"4444444+00000000000000+werrrrrrrrererere+4444444",
"4444444+00000000000000+weerererereerreee+4444444",
"4444444+00++++++++++00+werrereeerererere+4444444",
"4444444+00000000000000+wrrrrrrrrrrrrrrrr+4444444",
"4444444+00000000000000+wwwwwwwwwwwwwwwww+4444444",
"4444444+00000000000000+00000988800600000+4444444",
"4444444+0+++++0000+++++00000;<<<>><80000+4444444",
"4444444+00000000000000+0ww0;>>>**>>;0www+4444444",
"4444444+00000000000000+0ww0;><;><><;0www+4444444",
"4444444+00000000000000+0000><<;<<<<*0000+4444444",
"4444444++++++++++++++++0000<<<><<<>*0000+4444444",
"4444444++++++++++++++++0ww0><<   ><;0www+4444444",
"4444444+00000000000000+0ww0;<<  .<<>0www+4444444",
"4444444+00000000000000+0ww8;<<$ <<>;0www+4444444",
"4444444+00000000000000+0ww0><<$ <<>;0www+4444444",
"4444444+00000000000000+0008;<<<#<>>*0000+4444444",
"4444444++++++++++++++++0ww0><<<<<<>*9www+4444444",
"4444444+00000000000000+0ww8&><><<>>*0www+4444444",
"4444444+00000000000000+0ww0;<<<<<><;0www+4444444",
"4444444+00000000000000+0ww0>;;*><<<;0www+4444444",
"4444444+00000000000000+00000000700000000+3444444",
"4444444++++++++++++++++++++++++++++++++++2444444",
"444444444444444444444444444444444444444444444444",
"444444444444444444444444444444444444444444444444",
"444444444444444444444444444444444444444444444444",
"444444444444444444444444444444444444444444444444",
"444444444444444444444444444444444444444444444444",
"444444444444444444444444444444444444444444444444"
};
