/* XPM */
static char *b397fa07f2ca4539db98406d316e5e9cBVCYHLOfqP9Wy7bh[] = {
/* columns rows colors chars-per-pixel */
"48 48 75 1 ",
"  c black",
". c #040404",
"X c #312D2B",
"o c #393431",
"O c #393A33",
"+ c #3A3C34",
"@ c #3A3E34",
"# c #3A4236",
"$ c #3B4537",
"% c #3B4837",
"& c #3B4A38",
"* c #3B4B39",
"= c #3B4E39",
"- c #3B4F3A",
"; c #3C513A",
": c #3C543B",
"> c #3C553C",
", c #3C593D",
"< c #3C5A3D",
"1 c #3D5D3E",
"2 c #3D6140",
"3 c #3A6640",
"4 c #3D6642",
"5 c #3E6B43",
"6 c #3E6D44",
"7 c #3E6F44",
"8 c #3C7344",
"9 c #3F7245",
"0 c #3F7646",
"q c #3F7947",
"w c #3F7A48",
"e c #3F7C49",
"r c #3F7D49",
"t c #595B52",
"y c #8A6B35",
"u c #3F804A",
"i c #3F9650",
"p c #40814A",
"a c #40834B",
"s c #40874C",
"d c #418B4D",
"f c #418D4E",
"g c #418F4F",
"h c #41904F",
"j c #42924F",
"k c #488250",
"l c #419250",
"z c #419551",
"x c #429751",
"c c #449751",
"v c #4A9657",
"b c #429A52",
"n c #429B53",
"m c #429C53",
"M c #449C53",
"N c #449C54",
"B c #469C55",
"V c #4B9959",
"C c #4B9F5A",
"Z c #5BA156",
"A c #6EA458",
"S c #55A362",
"D c #60A56A",
"F c #C68B26",
"G c #B7965E",
"H c #89A95C",
"J c #8BA95C",
"K c #A1AE5F",
"L c #A3AE5F",
"P c #B0B060",
"I c #B8B261",
"U c #C0B362",
"Y c #D1B664",
"T c #DFB966",
"R c white",
/* pixels */
"mmmmmmmmmmmmmmmmmmmmmmmmmmmmmmmmmmmmmmmmmmmmmmmm",
"mmmmmmmmmmmmmmmmmmmmmmmmmmmmmmmmmmmmmmmmmmmmmmmm",
"mmmmmmmmmmmmmmmmmmmmmmmmmmmmmmmmmmmmmmmmmmmmmmmm",
"mmmmmmmmmmmmmmmmmmmmmmmmmmmmmmmmmmmmmmmmmmmmmmmm",
"mmmmbzdmmmmmmmbbbbmmmmmmmmmmmmmmmmmmmmmmmmmmmmmm",
"mmmmhs9mmmmmmmmgwdmmmmmmmmmmmmmmmmmmmmmmmmmmmmmm",
"mmmmg9ommmmmmbb$ouNmmmmmmmmmmmmmmmmmmmmmmmmmmmmm",
"mmmmuoooVmmmm,@oowNNmmmmmmmmmmmmmmmmmmmmmmmmmmmm",
"mmmmroGoommmmooGoummmmmmmmmmmmmmmmmmmmmmmmmmmmmm",
"mmmmroGGommmmoGGoimmmmmmmmmmmmmmmmmmmmmmmmmmmmmm",
"mmmmdoyG#bmmmoGyoummmmmmmmmmmmmmmmmmmmmmmmmmmmmm",
"mmmmdoyyo;>*,oyyozmmmmmmmmmmmmmmmmmmmmmmmmmmmmmm",
"mmmmuOoooooooooo@gbbmmmmmmmmmmmmmmmmmmmmmmmmmmmm",
"mmmmgoRRooooRRoo@gmmmmmmmmmmmmmmmmmmmmmmmmmmmmmm",
"mbmmgoFRooooFRoo@dmmmmmmmmmmmmmmmmmmmmmmmmmmmmmm",
"ibbbrOFRooooFRooOgmmmmmmmmmmmmmmmmmmmmmmmmmmmmmm",
"   o#ooooooooooooovNmmmmmmmmmmmmmmmmmmmmmmmmmmmm",
"  oooooooooooooooosbmmmmmmmmmmmmmmmmmmmmmmmmmmmm",
"@.oooooooooooooooownmmmmmmmmmmmmmmmmmmmmmmmmmmmm",
",..oooo.oooooooooo2cmmmmmmmmmmmmmmmmmmmmmmmmmmmm",
"5O.....oooooooooooorbNmmmmmmmmmmmmmmmmmmmmmmmmmm",
"mmOoooooooooooooooo2mmmbmmmmmmmmbbmmmmmmmmmmmmmm",
"mmq4;>Ooooooooooooo#zzzbbbbmbhblglzbmmmmmmmmmmmm",
"mmmbmmmooooooooooooo;5666212224>#$>0mmmmmmmmmmmm",
"mmmmmmm&oooooooooooooooooooooooooooolsmmmmmmmmmm",
"mmmmmmb5ooooooooooooooooooooooooooooo&NbmmmNmmmm",
"mmmmmmm4ooooooooooooooooooooooooooooooo#uiNbmmmm",
"mmmmmmb5oooooToooooooooooooooooooooooooo@uCmmmmm",
"mmmmmmm,ooooTTooooooooooooooooooooooooooo@DCSmmm",
"mmmmmmN&ooooTTToooooooooooooooooooooooooootkSmmm",
"mmmmmmm$oooTTTToooooooooooooooooooooooooooooNmmm",
"mmmmmmm$oooTTTTToooooooooooooooooooooooTToooNmmm",
"mmmmmmm9oooTTTTToooooooooooooooooooooommiTooibNm",
"mmmmmmm6oooTTTTToooooTTTTToooooooooooommNToozbbm",
"mmmmmmb9oooXZKKKoooooTTTTIooooTYTTTooommmTooNbbm",
"mmmmmmmm*oomMmmmooooKbbmMJIooormbJPooommmTomNmmm",
"mmmmmmmb:oXbmmmmoooOmmmmMMdXoobbmmuOo;mAToomNmmm",
"mmmmmmmmqoommmmooo@lmmmmbguXoommmmXXo$mTooommmmm",
"mmmmmmmmbXo1bbmooo#mmmmmbmdNXoommmXXo0booommmmmm",
"mmmmmmmmzXXXhbooo@lzmmmmbmbb#ooimmXX9bmmmmmmmmmm",
"mmmmmmmmbmXXmmoo%bbzmmmmmmmmroommXXXrbmmmmmmmmmm",
"mmmmmmmmbbXXwooojmbmmmmmmmmmuoommXXmhbmmmmmmmmmm",
"mmmmmmmmmbXX8oo,mmmmmmmmmmmmroomXXXmmgmmmmmmmmmm",
"mmmmmmmmmlXX3o#umbmhmmmmmmmmboomXXmbzdmmmmmmmmmm",
"mmmmmmmmmmmzbmmmmmmmmmmmmmmmmmmmmmmmmmmmmmmmmmmm",
"mmmmmmmmmmmmmmmmmmmmmmmmmmmmmmmmmmmmmmmmmmmmmmmm",
"mmmmmmmmmmmmmmmmmmmmmmmmmmmmmmmmmmmmmmmmmmmmmmmm",
"mmmmmmmmmmmmmmmmmmmmmmmmmmmmmmmmmmmmmmmmmmmmmmmm"
};
