/* XPM */
static char *_606389aab274299a4056a839e75f101HlXd9VKV92NmeXSo[] = {
/* columns rows colors chars-per-pixel */
"48 48 75 1 ",
"  c #040404",
". c #312D2B",
"X c #393431",
"o c #393531",
"O c #393732",
"+ c #393A33",
"@ c #3A3C34",
"# c #3A3D34",
"$ c #3A3E34",
"% c #344032",
"& c #3A4135",
"* c #3B4537",
"= c #3B4837",
"- c #3B4838",
"; c #3B4E39",
": c #3C513A",
"> c #3C533B",
", c #3C553C",
"< c #3C563C",
"1 c #3C593D",
"2 c #3C5A3D",
"3 c #3C5C3E",
"4 c #3D5D3E",
"5 c #3D613F",
"6 c #3D6341",
"7 c #3E6741",
"8 c #3D6942",
"9 c #3E6B43",
"0 c #3E6D44",
"q c #3C7344",
"w c #3F7245",
"e c #3F7646",
"r c #3F7947",
"t c #3D7A47",
"y c #3F7A48",
"u c #3F7C48",
"i c #3F7C49",
"p c #3F7F4A",
"a c #595B52",
"s c #8A6B35",
"d c #3F804A",
"f c #3F9650",
"g c #40834B",
"h c #40854B",
"j c #40884C",
"k c #408A4D",
"l c #418E4E",
"z c #418E4F",
"x c #41904F",
"c c #42924F",
"v c #488250",
"b c #419250",
"n c #429651",
"m c #4A9657",
"M c #429852",
"N c #429C53",
"B c #449C53",
"V c #449C54",
"C c #489D54",
"Z c #4B9959",
"A c #4B9F5A",
"S c #5BA156",
"D c #6EA458",
"F c #55A362",
"G c #C68B26",
"H c #B7965E",
"J c #89A95C",
"K c #A1AE5F",
"L c #A5AE5F",
"P c #B0B060",
"I c #B8B261",
"U c #C0B362",
"Y c #D1B664",
"T c #DFB966",
"R c white",
/* pixels */
"NNNNNNNNNNNNNNNNNNNNNNNNNNNNNNNNNNNNNNNNNNNNNNNN",
"NNNNNNNNNNNNNNNNNNNNNNNNNNNNNNNNNNNNNNNNNNNNNNNN",
"NNNNNNNNNNNNNNNNNNNNNNNNNNNNNNNNNNNNNNNNNNNNNNNN",
"NNNNNNNNNNNNNNNNNNNNNNNNNNNNNNNNNNNNNNNNNNNNNNNN",
"NNNNNNNNNNNNNNNNNNNNNNNNNNNNNMMNNNNNNNNNxnMNNNNN",
"NNNNNNNNNNNNNNNNNNNNNNNNNNNNNkrlNNNNNNNNedbNNNNN",
"NNNNNNNNNNNNNNNNNNNNNNNNNNNNMkX*MMNNNNNNXelNNNNN",
"NNNNNNNNNNNNNNNNNNNNNNNNNNNNNiXX#4NNNNZXXXdNNNNN",
"NNNNNNNNNNNNNNNNNNNNNNNNNNNNNgXHXXNNNNXXHXuNNNNN",
"NNNNNNNNNNNNNNNNNNNNNNNNNNNNNlXHHXNNNNXHHXfNNNNN",
"NNNNNNNNNNNNNNNNNNNNNNNNNNNNMkXsHXNNNM&HsXcNNNNN",
"NNNNNNNNNNNNNNNNNNNNNNNNNNNNNbXssX2=<;XssXdNNNNN",
"NNNNNNNNNNNNNNNNNNNNNNNNNNNNNk#XXXXXXXXXXXdMNNNN",
"NNNNNNNNNNNNNNNNNNNNNNNNNNNNNx#XXRRXXXXRRXkNNNNN",
"NNNNNNNNNNNNNNNNNNNNNNNNNNNNVl#XXRGXXXXRGXlNNNNN",
"NNNNNNNNNNNNNNNNNNNNNNNNNNNnVk@XXRGXXXXRGXhNfffN",
"NNNNNNNNNNNNNNNNNNNNNNNNNNNNmXXXXXXXXXXXXX&X   n",
"NNNNNNNNNNNNNNNNNNNNNNNNNNNNhXXXXXXXXXXXXXXXo  f",
"NNNNNNNNNNNNNNNNNNNNNNNNNNNVgXXXXXXXXXXXXXXXo $N",
"NNNNNNNNNNNNNNNNNNNNNNNNNNNM4XXXXXXXXXX XXXX  1N",
"NNNNNNNNNNNNNNNNNNNNNNNNNNngXXXXXXXXXXXX     o9M",
"NNNNNNNNNNNNNMNNNNNNNNNNNNM5XXXXXXXXXXXXXXo++NNN",
"NNNNNNNNNNNMncxxMlMnNnMMMnb&XXXXXXXXXXXX+1>5rNNN",
"NNNNNNNNNNNr<*&<8666489909:XXXXXXXXXXXXXMNNNNNNN",
"NNNNNNNNNdnXXXXXXXXXXXXXXXXXXXXXXXXXXXO=NNNNNNNN",
"NNNNNNNNN=XXXXXXXXXXXXXXXXXXXXXXXXXXXXO9NNNNNNNN",
"NNNNNxd*XXXXXXXXXXXXXXXXXXXXXXXXXXXXXXX5NNNNNNNN",
"NNNNAd$XXXXXXXXXXXXXXXXXXXXXXXXXXTXXXXX8NNNNNNNN",
"NMFAF++XXXXXXXXXXXXXXXXXXXXXXXXXXTTXXXX1NNNNNNNN",
"NVFva+XXXXXXXXXXXXXXXXXXXXXXXXXXTTTXXXX;NNNNNNNN",
"NNBXXXXXXXXXXXXXXXXXXXXXXXXXXXXXTTTTXXX*NNNNNNNN",
"NNZXXXTTXXXXXXXXXXXXXXXXXXXXXXXTTTTTXXX*NNNNNNNN",
"NMnXXTMNNXXXXXXXXXXXXXXXXXXXXXXTTTTTXXX0NNNNNNNN",
"NNnXXTNNNXXXXXXXXXXXXTTTTTXXXXXTTTTTXXXwNNNNNNNN",
"MNCXXTNNNXXXTTTYTXXXXITTTTXXXXXKKLS.XXX9NNNNNNNN",
"NVNMXTNNNXXXPJNNuXXXIJBBMBLXXXXNNNNNXX;NNNNNNNNN",
"NVNNXXTDN=XXkNNNMXX.dNNNNNN$XXXNNNNM.X<MNNNNNNNN",
"NNNNXXXTN=X..NNNNXX.ldNNNNNx$XXXNNNMXXrNNNNNNNNN",
"NNNNNXXXNrX..NNNXX.NdNNNNNNN$XXXNMN4X.MNNNNNNNNN",
"NNNNNNNNNMw..NNNX+%NNNNNNNNMx$XXXNn...nNNNNNNNNN",
"NNNNNNNNNNy...NNXXiNNNNNNNNnNM-XONN..NNNNNNNNNNN",
"NNNNNNNNNMnN..NNXXdNNNNNNNNNNNlXXOr..MNNNNNNNNNN",
"NNNNNNNNNxMN...NXXiNNNNNNNNMNNN2XXq..NNNNNNNNNNN",
"NNNNNNNNNgMNN..NXXNNNNNNNNNnMNNlXX5..nNNNNNNNNNN",
"NNNNNNNNNNNNNNNNNNNNNNNNNNNNNNNNNNNfNNNNNNNNNNNN",
"NNNNNNNNNNNNNNNNNNNNNNNNNNNNNNNNNNNMNNNNNNNNNNNN",
"NNNNNNNNNNNNNNNNNNNNNNNNNNNNNNNNNNNNNNNNNNNNNNNN",
"NNNNNNNNNNNNNNNNNNNNNNNNNNNNNNNNNNNNNNNNNNNNNNNN"
};
