/* XPM */
static char *_66d830b62ab4b98fde0ffd8efd79ee5vXW8TfFHam4hVm6W[] = {
/* columns rows colors chars-per-pixel */
"48 48 83 1 ",
"  c black",
". c #040404",
"X c #312D2B",
"o c #393431",
"O c #393531",
"+ c #393832",
"@ c #3A3E34",
"# c #3A3F35",
"$ c #344132",
"% c #3A4336",
"& c #3A4537",
"* c #3B4A38",
"= c #3B4D39",
"- c #375439",
"; c #3C513B",
": c #3C533B",
"> c #38593B",
", c #3C593D",
"< c #3C5B3E",
"1 c #385D3C",
"2 c #3C5C3E",
"3 c #3D5E3F",
"4 c #39623E",
"5 c #3D6040",
"6 c #3D6641",
"7 c #3E6A43",
"8 c #3E6C43",
"9 c #3E7145",
"0 c #3E7346",
"q c #3F7546",
"w c #3F7947",
"e c #3F7A48",
"r c #3F7B48",
"t c #3F7C49",
"y c #3F7E49",
"u c #8A6B35",
"i c #40804A",
"p c #40834B",
"a c #40844B",
"s c #40854B",
"d c #40874C",
"f c #40884C",
"g c #40894D",
"h c #418B4D",
"j c #418B4E",
"k c #418D4E",
"l c #41914F",
"z c #419150",
"x c #429751",
"c c #429B53",
"v c #449952",
"b c #429C53",
"n c #449C53",
"m c #439C54",
"M c #479C57",
"N c #499D54",
"B c #4C9E54",
"V c #4F9E55",
"C c #4A9B58",
"Z c #539F55",
"A c #56A055",
"S c #5FA157",
"D c #61A257",
"F c #65A257",
"G c #68A358",
"H c #6BA458",
"J c #70A559",
"K c #73A559",
"L c #75A559",
"P c #76A659",
"I c #79A65A",
"U c #7FA75A",
"Y c #5BA467",
"T c #C68B26",
"R c #B7965E",
"E c #80A75A",
"W c #84A85B",
"Q c #8DAA5C",
"! c #ABAF60",
"~ c #C0B362",
"^ c #C6B463",
"/ c #DFB966",
"( c white",
/* pixels */
"bbbbbbbbbbbbbbbbbbbbbbbbbbbbbbbbbbbbbbbbbbbbbbbb",
"bbbbbbbbbbbbbbbbbbbbbbbbbbbbbbbbbbbbbbbbbbbbbbbb",
"bbbbbbbbbbbbbbbbbbbbbbbbbbbbbbbbbbbbbbbbbbbbbbbb",
"bbbbbbbbbbbbbbbbbbbbbbbbbbbbbbbbbbbbbbbbbbbbbbbb",
"bbbbldqbbbbbbbckwjbbbbbbbbbbbbbbbbbbbbbbbbbbbbbb",
"bbbbz0obbbbbbbb&okbbbbbbbbbbbbbbbbbbbbbbbbbbbbbb",
"bbbbsoooCbbbb2@oowbbbbbbbbbbbbbbbbbbbbbbbbbbbbbb",
"bbbbioRoobbbbooRodbbbbbbbbbbbbbbbbbbbbbbbbbbbbbb",
"bbbbdoRRobbbcoRRojbbbbbbbbbbbbbbbbbbbbbbbbbbbbbb",
"bbbbjouR%cbbcoRuogbbbbbbbbbbbbbbbbbbbbbbbbbbbbbb",
"bbbbjouuo::*,ouuoxbbbbbbbbbbbbbbbbbbbbbbbbbbbbbb",
"bbbbjooooooooooo+lbbbbbbbbbbbbbbbbbbbbbbbbbbbbbb",
"bbbbjo((oooo((oo#lbbbbbbbbbbbbbbbbbbbbbbbbbbbbbb",
"bbbbkoT(ooooT(oo@kbbbbbbbbbbbbbbbbbbbbbbbbbbbbbb",
"bbbbjoT(ooooT(oo#kbbbbbbbbbbbbbbbbbbbbbbbbbbbbbb",
"   +#oooooooooooooCbbbbbbbbbbbbbbbbbbbbbbbbbbbbb",
"  ooooooooooooooooibbbbbbbbbbbbbbbbbbbbbbbbbbbbb",
"#.oooooooooooooooodbbbbbbbbbbbbbbbbbbbbbbbbbbbbb",
"<..oooo.oooooooooo5vbbbbbbbbbbbbbbbbbbbbbbbbbbbb",
"7+.....ooooooooooootbbbbbbbbbbbbbbbbbbbbbbbbbbbb",
"cb+oooooooooooooooo7bbbbbbbbbbbbbbbbbbbbbbbbbbbb",
"bbe6::+oooooooooooo%bbbbbbbbbbbbbbbbbbbbbbbbbbbb",
"bbbbbbbooooooooooooooooooooooooooooobbbbbbbbbbbb",
"bbbbbbb*oooooooooooooooooooooooooooooomnbo/bbbbb",
"bbbbbbb7ooooooooooooooooooooooooooooo=Onboo/bbbb",
"bbbbbbceooooo/ooooooooooooooooooooooooOvbcoo/bbb",
"bbbbbbcioooo//ooooooooooooooooooooooooo%ilNoo/bb",
"bbbbbbbeoooo///ooooooooooooooooooooooooo%jb:o/bb",
"bbbbbbb8ooo////ooooooooooooooooooooooooOo#YMoo/b",
"bbbbbbb3ooo/////oooooooooooooooooooooooOoo%woo/b",
"bbbbbbb3ooo/////ooooooooooooooooooooooO//oooo/bb",
"bbbbbbb3ooo/////oooooooooooooooooooooovB!/oo/bbb",
"bbbbbbb0ooo/////ooooo/////ooooo////ooobbcZnlcccc",
"bbbbbbb8ooo!WWE^oooooQDHKKoooooKGEKooobbbcnbbccc",
"bbbbbbc0oooZbAABqooooDQKFK:oooOKVND&oobbbbbbbbcc",
"bbbbbbcoooocbbnnQoooEbbbnE!ooo3bbIEwoobbbbbbbbbb",
"bbbbbbbooo7cbbbblAoo&bbbbcioooqbbbj+oXkbbbbbbnnb",
"bbbbbboooklcbbbbbwooobbbcccooolbbbs%oXccbbbbbbbb",
"bbbbbboooyccbbbbblooojbbcboooqkbbblwoXXcbbbbbbbb",
"bbbbbooo4hkbbbbbbb9oXlbbcbooobbbbblb$XXbbbbbbbbb",
"bbbbbooo8kjbbbbbbbbXXbcbbboobblbbbbbcXXbbbbbbbbb",
"bbbbooobnlwcbbbbbbbXXccbbooobblbbbbbjXXbbcbbbbbb",
"bbcooobbbklcbbbbbbbXX1cbooobbbbbbbbbbXX-bxbbbbbb",
"bbcoo7bbbljcbbbbbbbXX>ccoobbbbbbbbbbcXX4bcbbbbbb",
"bbbbbbbbbbbbbbbbbbbbbbbbbbbbbbbbbbbbbbbbbbbbbbbb",
"bbbbbbbbbbbbbbbbbbbbbbbbbbbbbbbbbbbbbbbbbbbbbbbb",
"bbbbbbbbbbbbbbbbbbbbbbbbbbbbbbbbbbbbbbbbbbbbbbbb",
"bbbbbbbbbbbbbbbbbbbbbbbbbbbbbbbbbbbbbbbbbbbbbbbb"
};
