/* XPM */
static char *result[] = {
/* columns rows colors chars-per-pixel */
"48 48 135 2 ",
"   c black",
".  c #040404",
"X  c #312D2B",
"o  c #393431",
"O  c #393531",
"+  c #393632",
"@  c #393832",
"#  c #393A33",
"$  c #3A3A33",
"%  c #3A3B33",
"&  c #3A3C34",
"*  c #3A3D34",
"=  c #3A3E34",
"-  c #3A3F35",
";  c #344132",
":  c #3A4135",
">  c #3A4236",
",  c #3A4336",
"<  c #3A4436",
"1  c #3A4537",
"2  c #3B4637",
"3  c #3B4A38",
"4  c #3B4D39",
"5  c #3B4F3A",
"6  c #375439",
"7  c #3C513B",
"8  c #3C533B",
"9  c #3C543C",
"0  c #38593B",
"q  c #3C593D",
"w  c #3C5B3E",
"e  c #385D3C",
"r  c #3C5C3E",
"t  c #3D5E3F",
"y  c #39623E",
"u  c #3D6040",
"i  c #3D6441",
"p  c #3D6641",
"a  c #3D6842",
"s  c #3E6942",
"d  c #3E6A43",
"f  c #3E6C43",
"g  c #3E6F44",
"h  c #3E7145",
"j  c #3E7245",
"k  c #3E7346",
"l  c #3F7446",
"z  c #3F7546",
"x  c #3F7646",
"c  c #3F7747",
"v  c #3F7847",
"b  c #3F7947",
"n  c #3F7948",
"m  c #3F7A48",
"M  c #3F7B48",
"N  c #3F7C49",
"B  c #3F7E49",
"V  c #8A6B35",
"C  c #40804A",
"Z  c #40814A",
"A  c #40834B",
"S  c #40844B",
"D  c #40854B",
"F  c #40864C",
"G  c #40874C",
"H  c #40884C",
"J  c #40884D",
"K  c #40894D",
"L  c #408A4D",
"P  c #418B4D",
"I  c #418B4E",
"U  c #418C4E",
"Y  c #408D4E",
"T  c #418D4E",
"R  c #418E4E",
"E  c #418F4F",
"W  c #41904F",
"Q  c #41914F",
"!  c #419150",
"~  c #419250",
"^  c #419350",
"/  c #419551",
"(  c #429751",
")  c #419852",
"_  c #429852",
"`  c #429952",
"'  c #429A52",
"]  c #429B53",
"[  c #449952",
"{  c #429C53",
"}  c #439C53",
"|  c #449C53",
" . c #469C53",
".. c #439C54",
"X. c #479C57",
"o. c #479E57",
"O. c #499D54",
"+. c #4C9E54",
"@. c #4F9E55",
"#. c #4A9B58",
"$. c #4B9A59",
"%. c #519F55",
"&. c #539F55",
"*. c #56A055",
"=. c #58A056",
"-. c #5FA157",
";. c #60A157",
":. c #61A257",
">. c #65A257",
",. c #68A358",
"<. c #6BA458",
"1. c #70A459",
"2. c #70A559",
"3. c #71A559",
"4. c #73A559",
"5. c #75A559",
"6. c #76A659",
"7. c #77A659",
"8. c #79A65A",
"9. c #7EA75A",
"0. c #7FA75A",
"q. c #5BA467",
"w. c #C68B26",
"e. c #B7965E",
"r. c #80A75A",
"t. c #84A85B",
"y. c #8DAA5C",
"u. c #8EAA5C",
"i. c #8FAA5C",
"p. c #ABAF60",
"a. c #C0B362",
"s. c #C1B362",
"d. c #C6B463",
"f. c #DFB966",
"g. c white",
/* pixels */
"{ { { { { { { { { { { { { { { { { { { { { { { { { { { { { { { { { { { { { { { { { { { { { { { { ",
"{ { { { { { { { { { { { { { { { { { { { { { { { { { { { { { { { { { { { { { { { { { { { { { { { ",
"{ { { { { { { { { { { { { { { { { { { { { { { { { { { { { { { { { { { { { { { { { { { { { { { { ",
"{ { { { { { { { { { { { { { { { { { { { { { { { { { { { { { { { { { { { { { { { { { { { { { { { ",
"{ { { { { { { { { { { { { { { { { { { { { { { { { { { { { L b R { { { { { { { { z G Q { { { { { ",
"{ { { { { { { { { { { { { { { { { { { { { { { { { { { { { R o 2 { { { { { { { { o k ! { { { { { ",
"{ { { { { { { { { { { { { { { { { { { { { { { { { { { { { N o o = w { { { { $.o o o D { { { { { ",
"{ { { { { { { { { { { { { { { { { { { { { { { { { { { { { S o e.o o { { { { o o e.o C { { { { { ",
"{ { { { { { { { { { { { { { { { { { { { { { { { { { { { { I o e.e.o { { { { o e.e.o K { { { { { ",
"{ { { { { { { { { { { { { { { { { { { { { { { { { { { { { K o V e.o { { { { > e.V o P { { { { { ",
"{ { { { { { { { { { { { { { { { { { { { { { { { { { { { { ( o V V o q 3 9 5 o V V o P { { { { { ",
"{ { { { { { { { { { { { { { { { { { { { { { { { { { { { { W & o o o o o o o o o o o L { { { { { ",
"{ { { { { { { { { { { { { { { { { { { { { { { { { { { { { W & o o g.g.o o o o g.g.o I { { { { { ",
"{ { { { { { { { { { { { { { { { { { { { { { { { { { { { { W & o o g.w.o o o o g.w.o T { { { { { ",
"{ { { { { { { { { { { { { { { { { { { { { { { { { { { { { E & o o g.w.o o o o g.w.o H { { { { { ",
"{ { { { { { { { { { { { { { { { { { { { { { { { { { { } #.o o o o o o o o o o o o o : @       { ",
"{ { { { { { { { { { { { { { { { { { { { { { { { { { { { A o o o o o o o o o o o o o o o o     { ",
"{ { { { { { { { { { { { { { { { { { { { { { { { { { { ] F o o o o o o o o o o o o o o o o . * { ",
"{ { { { { { { { { { { { { { { { { { { { { { { { { { { [ u o o o o o o o o o o . o o o o . . w { ",
"{ { { { { { { { { { { { { { { { { { { { { { { { { { { B o o o o o o o o o o o o . . . . . @ s { ",
"{ { { { { { { { { { { { { { { { { { { { { { { { { { { d o o o o o o o o o o o o o o o o # { { { ",
"{ { { { { { { { { { { { { { { { { { { { { { { { { { { : o o o o o o o o o o o o $ 8 8 i m { { { ",
"{ { { { { { { { { { { o o o o o o o o o o o o o o o o o o o o o o o o o o o o o { { { { { { { { ",
"{ { { { f.o { { { o o o o o o o o o o o o o o o o o o o o o o o o o o o o o o 3 { { { { { { { { ",
"{ { { f.o o { { o 4 o o o o o o o o o o o o o o o o o o o o o o o o o o o o o s { { { { { { { { ",
"{ { f.o o { { { o o o o o o o o o o o o o o o o o o o o o o o o o f.o o o o o b { { { { { { { { ",
"{ f.o o X.~ Z < o o o o o o o o o o o o o o o o o o o o o o o o o f.f.o o o o Z { { { { { { { { ",
"{ f.o 8 ..J : o o o o o o o o o o o o o o o o o o o o o o o o o f.f.f.o o o o M { { { { { { { { ",
"f.o o o.q.- o o o o o o o o o o o o o o o o o o o o o o o o o o f.f.f.f.o o o f { { { { { { { { ",
"f.o o m - o o o o o o o o o o o o o o o o o o o o o o o o o o f.f.f.f.f.o o o t { { { { { { { { ",
"{ f.o o o o f.f.o o o o o o o o o o o o o o o o o o o o o o o f.f.f.f.f.o o o r { { { { { { { { ",
"{ { f.o o f.s.{ { o o o o o o o o o o o o o o o o o o o o o o f.f.f.f.f.o o o u { { { { { { { { ",
"{ _ / ( | %._ { { o o o f.f.f.f.o o o o o f.f.f.f.f.o o o o o f.f.f.f.f.o o o g { { { { { { { { ",
"` ] { } | { { { { o o o 2.t.,.1.o o o o o 7.5.<.-.i.o o o o O d.9.9.9.a.o o o g { { { { { { { { ",
"{ { { } { { { { { o o 1 :.O.@.6.o o o o 7 4.>.3.u.;.+ o o o j +.*.%.| &.o o o g { { { { { { { { ",
"{ } { { { { { { { o o M 0.8.{ { r o o o p.9.{ ] { ' r.o o o y.{ { { { { o o o o { { { { { { { { ",
" .} { { { { { { E X o % J { { { x o o o D _ { { { { 2 o o =./ { { { { { s o o o { { { { { { { { ",
"{ { { { { { { { { X o , G { { { ^ o o o _ ] { { { { o o o c { { { { { { ~ R o o o { { { { { { { ",
"{ { { { { { { ( X X o n R { { { R l o o o { { { { K o o o ! { { { { { { ( B o o o { { { { { { { ",
"{ { { { { { { { X X ; ` ^ { { { ] { o o o { { { { / X O h { { { { { { { E L p o o o { { { { { { ",
"{ { { { { { { { X X ) { { { { { ! _ { o o { { { { ] X X { ] { { { { { { U I s o o o { { { { { { ",
"{ { { { { ] { ] X X Y { { { { { ( { { o o o { { ' ] X X { { { { { { { { v ^ { { o o o { { { { { ",
"{ { { { { ' { 6 X X { { { { { { { { { { o o o { ' e X X { { { { { { { { E R { { { o o o { { { { ",
"{ { { { { ] { y X X ' { { { { { { { { { { o o { ] 0 X X { { { { { { { { H E { { { a o o { { { { ",
"{ { { { { { { { { { { { { { { { { { { { { { { { { { { { { { { { { { { { { { { { { { { { { { { { ",
"{ { { { { { { { { { { { { { { { { { { { { { { { { { { { { { { { { { { { { { { { { { { { { { { { ",
"{ { { { { { { { { { { { { { { { { { { { { { { { { { { { { { { { { { { { { { { { { { { { { { { { ",
"{ { { { { { { { { { { { { { { { { { { { { { { { { { { { { { { { { { { { { { { { { { { { { { { { "
};
