/* XPM */
static char *ba2c458b2f1847978bbde26deb5a63fc587tMWWZzWAYUfm3[] = {
/* columns rows colors chars-per-pixel */
"48 48 74 1 ",
"  c black",
". c #040404",
"X c #312D2B",
"o c #393431",
"O c #393531",
"+ c #393932",
"@ c #3A3C34",
"# c #344032",
"$ c #3A4135",
"% c #3D4137",
"& c #3A4436",
"* c #3B4737",
"= c #3B4A38",
"- c #3B4E39",
"; c #3B503A",
": c #3C543B",
"> c #3C543C",
", c #3C583D",
"< c #3C5A3D",
"1 c #3D5D3E",
"2 c #3D5E3F",
"3 c #3D603F",
"4 c #3D6040",
"5 c #3D6340",
"6 c #3A6640",
"7 c #3D6642",
"8 c #3E6B43",
"9 c #3E6C43",
"0 c #3C7344",
"q c #3E7345",
"w c #3F7546",
"e c #3F7947",
"r c #3F7948",
"t c #3F7C48",
"y c #407A48",
"u c #407C48",
"i c #8A6B35",
"p c #C64265",
"a c #3F814A",
"s c #3F9650",
"d c #408049",
"f c #40854B",
"g c #40864C",
"h c #40884D",
"j c #418F4F",
"k c #419350",
"l c #469253",
"z c #419450",
"x c #469651",
"c c #429A52",
"v c #429B53",
"b c #429C53",
"n c #449C53",
"m c #439C54",
"M c #459C55",
"N c #53995F",
"B c #5BA156",
"V c #6EA458",
"C c #55A362",
"Z c #5CA568",
"A c #66A86F",
"S c #C68B26",
"D c #B7965E",
"F c #8BA95C",
"G c #A1AE5F",
"H c #A3AE5F",
"J c #A5AE5F",
"K c #B0B060",
"L c #B8B261",
"P c #C1B362",
"I c #D1B664",
"U c #DFB966",
"Y c #4F73B4",
"T c white",
/* pixels */
"bbbbbbbbbbbbbbbbbbbbbbbbbbbbbbbbbbbbbbbbbbbbbbbb",
"bbbbbbbbbbbbbbbbbbbbbbbbbbbbbbbbbbbbbbbbbbbbbbbb",
"bbbbbbbbbbbbbbbbbbbbbbbbbbbbbbbbbbbbbbbbbbbbbbbb",
"bbbbbbbbbbbbbbbbbbbbbbbbbbbbbbbbbbbbbbbbbbbbbbbb",
"bbbbca91bbbbbbbba1tbbbbbbbbbbbbbbbbbbbbbbbbbbbbb",
"bbbbch,omcbbbbbmooambbbbbbbbbbbbbbbbbbbbbbbbbbbb",
"bbmbcqoooNbbbc$o+o7bbbbbbbbbbbbbbbbbbbbbbbbbbbbb",
"bbmcc8oDoobbbbooDoqcbbbbbbbbbbbbbbbbbbbbbbbbbbbb",
"bbbbzroDDommbboDDotbbbbbbbbbbbbbbbbbbbbbbbbbbbbb",
"bbbbcyoiDobmccoDiorbbbbbbbbbbbbbbbbbbbbbbbbbbbbb",
"bbbbcuoiio@@+$oiiozbbbbbbbbbbbbbbbbbbbbbbbbbbbbb",
"bbbbceooooooooooooabbbbbbbbbbbbbbbbbbbbbbbbbbbbb",
"bbbbbuoTTooooTToo+fbbbbbbbbbbbbbbbbbbbbbbbbbbbbb",
"bbbbcdoSTooooSTooofbbbbbbbbbbbbbbbbbbbbbbbbbbbbb",
"bbbbbeoSTooooSTooofbbbbbbbbbbbbbbbbbbbbbbbbbbbbb",
"s   oooooooooooooooNbbbbbbbbbbbbbbbbbbbbbbbbbbbb",
"z  ooooooooooooooooqbbbbbbbbbbbbbbbbbbbbbbbbbbbb",
"bo.ooooooooooooooooqcbbbbbbbbbbbbbbbbbbbbbbbbbbb",
"b*..     oooooooooo=xbbbbbbbbbbbbbbbbbbbbbbbbbbb",
"c-opYYYp ooooooooooo8bbbbbbbbbbbbbbbbbbbbbbbbbbb",
"bbzpTTT oooooooooooo-bbbbbbbbbbbbbbbbbbbbbbbbbbb",
"bbc YYYoooooooooooooobbbbbbmbbbbbbbbbbbbbbbbbbbb",
"TYYYYYYoooooooooooooo@;:>,115135;$*,dmbbbbbbbbbb",
"TYYYYYTm+oooooooooooooooooooooooooooobbbbbbbbbbb",
"bTYYYTbc-ooooooooooooooooooooooooooooo-bmmmmbbbb",
"bbbbbbbm3oooooooooooooooooooooooooooooobsmmmbbbb",
"bbbbbbbaooooooUooooooooooooooooooooooooo*rxMbbbb",
"bbbbbbbtoooooUUoooooooooooooooooooooooooO@ambbbb",
"bbbbbbb9oooooUUUooooooooooooooooooooooooOO%AZCmb",
"bbbbbbm1ooooUUUUooooooooooooooooooooooooOOo@tbbb",
"bbbbbmb1ooooUUUUUoooooooooooooooooooooooUUoo+mbb",
"bbbbbvv5oooUUUUUooooooooooooooooooooooMMLUooMbbb",
"bbbbbbbqoooUUUUUoooooooooooooooooooooobbzUoozcmb",
"bbbbbbb9oooUUUUUoooooUUUUUoooooooooooobbmUoozmcb",
"bbbbbbcqoooXBJGGoooooUUUULooooUIUUUooobbbUooMccb",
"bbbbbbbc-oobbbbbooooHcvcMFLoooubbFKooobbbUobnbbb",
"bbbbbbbc>oXcbbbbooo+bbbbMcfXooccbba+o=bVUoobbnbb",
"bbbbbbbbroocbbbooo@kbbbbbhgXoocbbbXXo-bUooobbbbb",
"bbbbbbbbcXo1mzbooo$vbbbbbbhbXoobbbXXorbooobbbbbb",
"bbbbbbbbzXXXzcooo@ssbbbbbbbb#oobbbXX9cbbbbbbbbbb",
"bbbbbbbbmbXXccoo*cczmmbbbbbbeoobbXXXucbbbbbbbbbb",
"bbbbbbbbccXXrooosbcvbmbbbbbbao+bbXXbkcbbbbbbbbbb",
"bbbbbbbbmcXX0oo<bbccbbbbbbbbtoobXXXmcjbbbbbbbbbb",
"bbbbbbbbbsXX6o@ambcsbbbbbbbbcoobXXmcchbbbbbbbbbb",
"bbbbbbbbbbmcmsbbbbbbbbbbbbbbbbbbbbbbbbbbbbbbbbbb",
"bbbbbbbbbbbbmmbbbbbbbbbbbbbbbbbbbbbbbbbbbbbbbbbb",
"bbbbbbbbbbbbbbbbbbbbbbbbbbbbbbbbbbbbbbbbbbbbbbbb",
"bbbbbbbbbbbbbbbbbbbbbbbbbbbbbbbbbbbbbbbbbbbbbbbb"
};
