/* XPM */
static char *_428020448414e359a52f95186052e76j75f6VO4RXBiIZ0T[] = {
/* columns rows colors chars-per-pixel */
"48 48 80 1 ",
"  c black",
". c #040404",
"X c #312D2B",
"o c #393431",
"O c #393932",
"+ c #3A3F35",
"@ c #344132",
"# c #3A4135",
"$ c #3A4537",
"% c #3B4737",
"& c #3B4D39",
"* c #3C4F3A",
"= c #375439",
"- c #3C503A",
"; c #3C533B",
": c #38593B",
"> c #3C5A3D",
", c #3C5A3E",
"< c #385D3C",
"1 c #3C5C3E",
"2 c #3D5D3E",
"3 c #39623E",
"4 c #3D613F",
"5 c #594E3B",
"6 c #3D6642",
"7 c #3E6B43",
"8 c #3E6F44",
"9 c #3E7345",
"0 c #3F7646",
"q c #3F7847",
"w c #3F7B48",
"e c #407D48",
"r c #407D49",
"t c #8A6B35",
"y c #C64265",
"u c #40804A",
"i c #40844B",
"p c #40874C",
"a c #40884C",
"s c #40884D",
"d c #408A4D",
"f c #418F4F",
"g c #42924F",
"h c #419350",
"j c #419551",
"k c #429751",
"l c #469651",
"z c #429A53",
"x c #429B53",
"c c #429C53",
"v c #449C53",
"b c #479E57",
"n c #4C9E54",
"m c #4F9E55",
"M c #519F55",
"N c #519A5D",
"B c #53995F",
"V c #56A055",
"C c #5FA157",
"Z c #61A257",
"A c #65A257",
"S c #68A358",
"D c #6BA458",
"F c #73A559",
"G c #76A659",
"H c #79A65A",
"J c #7EA75A",
"K c #7FA75A",
"L c #5BA467",
"P c #C68B26",
"I c #B7965E",
"U c #84A85B",
"Y c #8DAA5C",
"T c #ABAF60",
"R c #D1AE61",
"E c #C0B362",
"W c #C6B463",
"Q c #DFB966",
"! c #4F73B4",
"~ c white",
/* pixels */
"cccccccccccccccccccccccccccccccccccccccccccccccc",
"cccccccccccccccccccccccccccccccccccccccccccccccc",
"cccccccccccccccccccccccccccccccccccccccccccccccc",
"cccccccccccccccccccccccccccccccccccccccccccccccc",
"cccccp02cccccccci4qccccccccccccccccccccccccccccc",
"cccccs,occccccccOouccccccccccccccccccccccccccccc",
"ccccc9oooBcccc#ooo6zcccccccccccccccccccccccccccc",
"ccccc7oIooccccooIo9zcccccccccccccccccccccccccccc",
"cccccqoIIoccccoIIorccccccccccccccccccccccccccccc",
"cccccrotIOccccoItowccccccccccccccccccccccccccccc",
"cccccrottoO+O#ottogccccccccccccccccccccccccccccc",
"cccccwooooooooooooiccccccccccccccccccccccccccccc",
"cccccro~~oooo~~ooosccccccccccccccccccccccccccccc",
"cccccuoP~ooooP~oooiccccccccccccccccccccccccccccc",
"cccccqoP~ooooP~oooiccccccccccccccccccccccccccccc",
"c   oooooooooooooooNvccccccccccccccccccccccccccc",
"c  oooooooooooooooo0cccccccccccccccccccccccccccc",
"co.oooooooooooooooo0zccccccccccccccccccccccccccc",
"c%..     oooooooooo%lccccccccccccccccccccccccccc",
"z*oy!!!y ooooooooooo7ccccccccccccccccccccccccccc",
"cccy~~~ oooooooooooo-ccccccccccccccccccccccccccc",
"ccc !!!ooooooooooooooccccccccccccccccccccccccccc",
"~!!!!!!ooooooooooooooooooooooooooooooczccccccccc",
"~!!!!!~cOoooooooooooooooooooooooooooooozccoQcccc",
"c~!!!~cc*ooooooooooooooooooooooooooooo*occooQccc",
"cccccccc4ooooooooooooooooooooooooooooooocccooQcc",
"cccccccc7oooooQooooooooooooooooooooooooo%ugnooQc",
"cccccccc7ooooQQoooooooooooooooooooooooooo#sc;oQc",
"cccccccc-ooo5QQQoooooooooooooooooooooooooo#LbooQ",
"cccccccc*oooQQQQRoooooooooooooooooooooooooo+qooQ",
"cccccccc>oooQQQQQoooooooooooooooooooooooQQooooQc",
"cccccccc4oooQQQQQoooooooooooooooooooooobnTQooQcc",
"cccccccc8oooQQQQQoooooQQQQQoooooQQQQooocczVckkkz",
"cccccccc8oooEJJJWoooooYZDHHoooooDDUFooocczcccczz",
"cccccccc8oooMvMVn9ooooMYFAF;ooooFMnC%ooccccccccc",
"ccccccccoooocccczYoooUlvzzJTooo2vzFJqoozcccccccc",
"ccccccccooo7ccccckMoo%ccccziooo0cccsOoXgcccccccv",
"cccccccooofgcccccceooocccczzooogcccu%oXzcccccccc",
"cccccccooorzccccccfooosccccooo0fcccfwoXXzzcccccc",
"ccccccooo4sfccccccc9oXkccccooozzccckz@XXcccccccc",
"ccccccooo7sfcccccczcXXzccccoockgcccccgXXcccccccc",
"cccccoooccgqccccccccXXczccooocckcccccfXXzccccccc",
"ccccooozccfgccccccccXX<zcoooccccccccccXX=czccccc",
"ccccoo7cccficcccccccXX:zcoocccccccccccXX3czccccc",
"cccccccccccccccccccccccccccccccccccccccccccccccc",
"cccccccccccccccccccccccccccccccccccccccccccccccc",
"cccccccccccccccccccccccccccccccccccccccccccccccc",
"cccccccccccccccccccccccccccccccccccccccccccccccc"
};
