/* XPM */
static char *_fdb951971604b50bf017f6d31131045Sf3doZxbwIBgW5QV[] = {
/* columns rows colors chars-per-pixel */
"48 48 86 1 ",
"  c black",
". c #040404",
"X c #312D2B",
"o c #393431",
"O c #393531",
"+ c #393732",
"@ c #3A3B33",
"# c #3A3E34",
"$ c #3A3F35",
"% c #344132",
"& c #3A4135",
"* c #3A4336",
"= c #3A4436",
"- c #3B4D39",
"; c #3C4F3A",
": c #375439",
"> c #3C503A",
", c #3C533B",
"< c #38593B",
"1 c #3C5A3D",
"2 c #385D3C",
"3 c #3D5D3E",
"4 c #39623E",
"5 c #3D613F",
"6 c #594E3B",
"7 c #3D6642",
"8 c #3D6942",
"9 c #3E6D44",
"0 c #3E6F44",
"q c #3E7045",
"w c #3E7145",
"e c #3F7747",
"r c #3F7847",
"t c #3F7B48",
"y c #3F7E49",
"u c #407D48",
"i c #407D49",
"p c #8A6B35",
"a c #C64265",
"s c #40824A",
"d c #40854B",
"f c #40874C",
"g c #40884C",
"h c #408A4D",
"j c #408D4E",
"k c #418F4F",
"l c #42924F",
"z c #419350",
"x c #429751",
"c c #429952",
"v c #429B53",
"b c #429C53",
"n c #449C53",
"m c #439C54",
"M c #479C57",
"N c #499D54",
"B c #4C9E54",
"V c #4F9E55",
"C c #539F55",
"Z c #519A5D",
"A c #56A055",
"S c #5FA157",
"D c #61A257",
"F c #65A257",
"G c #68A358",
"H c #6BA458",
"J c #70A459",
"K c #73A559",
"L c #75A559",
"P c #76A659",
"I c #79A65A",
"U c #7EA75A",
"Y c #7FA75A",
"T c #5BA467",
"R c #C68B26",
"E c #B7965E",
"W c #80A75A",
"Q c #84A85B",
"! c #8EAA5C",
"~ c #ABAF60",
"^ c #D1AE61",
"/ c #C0B362",
"( c #C6B463",
") c #DFB966",
"_ c #4F73B4",
"` c white",
/* pixels */
"bbbbbbbbbbbbbbbbbbbbbbbbbbbbbbbbbbbbbbbbbbbbbbbb",
"bbbbbbbbbbbbbbbbbbbbbbbbbbbbbbbbbbbbbbbbbbbbbbbb",
"bbbbbbbbbbbbbbbbbbbbbbbbbbbbbbbbbbbbbbbbbbbbbbbb",
"bbbbbbbbbbbbbbbbbbbbbbbbbbbbbbbbbbbbbbbbbbbbbbbb",
"bbbbbbbbbbbbbbbbbbbbbbbbbbbbbt5svvvbbbvv3udbbbbb",
"bbbbbbbbbbbbbbbbbbbbbbbbbbbbbs++vvbbbvvv+,gbbbbb",
"bbbbbbbbbbbbbbbbbbbbbbbbbbbbv7+oo*bbbbZo+o9bbbbb",
"bbbbbbbbbbbbbbbbbbbbbbbbbbbbv9oE++bbbbooEo8bbbbb",
"bbbbbbbbbbbbbbbbbbbbbbbbbbbbbi+EEovbbboEE+rbbbbb",
"bbbbbbbbbbbbbbbbbbbbbbbbbbbbbr+pEovbbb+Ep+ibbbbb",
"bbbbbbbbbbbbbbbbbbbbbbbbbbbbvloppo#@#@oppoibbbbb",
"bbbbbbbbbbbbbbbbbbbbbbbbbbbbvs+ooooo+oooootbbbbb",
"bbbbbbbbbbbbbbbbbbbbbbbbbbbbvd++o``oooo``ouvbbbb",
"bbbbbbbbbbbbbbbbbbbbbbbbbbbbvd+oo`Roooo`Rosvbbbb",
"bbbbbbbbbbbbbbbbbbbbbbbbbbvvvsooo`Roooo`Roevbbbb",
"bbbbbbbbbbbbbbbbbbbbbbbbbbvnZoooooooooooooo+   b",
"bbbbbbbbbbbbbbbbbbbbbbbbbbbbwoooooooooooooooo  v",
"bbbbbbbbbbbbbbbbbbbbbbbbbbbnuooooooooo++oooo+.+v",
"bbbbbbbbbbbbbbbbbbbbbbbbbbbl*oooooooooo     ..*b",
"bbbbbbbbbbbbbbbbbbbbbbbbbbb8ooooooooooo a___a+;b",
"bbbbbbbbbbbbbbbbbbvbbbvbbbv;oooooooooooo ```avbb",
"bbbbbbbbbbbbbbbbbbvvbbvvbvv+oooooooooooo+___ vbv",
"bbbbbbbbbbbooooo+ooo+ooooooooooooooooooo+______`",
"bbbb)obbboooooooooooooooooooooooooooooo@v`_____`",
"bbb)oobbo-ooooooooooooooooooooooooooooo;bb`___`b",
"bb)oobbbooooooooooooooooooooooooooooooo5bbbbbbbb",
"b)ooNls*ooooooooooooooooooooooooo)ooooo9bbbbbbbb",
"b)o,bg&ooooooooooooooooooooooooo+))oooo7bbbbbbbb",
")o+MT#oooooooooooooooooooooooooo)))6ooo,bbbbbbbb",
")oot#+ooooooooooooooooooooooooo^))))ooo;bbbbbbbb",
"v)oooo))ooooooooooooooooooooooo)))))ooo1bbbbbbbb",
"vv)oo)/nboooooooooooooooooooooo)))))ooo5bbbbbbbb",
"vxxxnCvvb+oo))))ooooo)))))ooooo)))))ooo0vbbbbbbb",
"vvvvnbvvv+o+JQGJoooooLKHS!ooooo(YYW~ooo9bbbbbbbb",
"bbvbbbbbvoo*DNVPoooo>KFK!D@ooowNACNCoo+8bbbbbbbb",
"bbbbbbbbv+oeYIvv1ooo~UbbvvYoo@!bnnnnoooobbbbbbbb",
"nnbbbbbbkX+@gbbbeooosvbbvv&@oClbbbbb8+oobbbbbbbb",
"bbbbbbbbvXo*dbbblooovbbbvvooorvvbbbblkoo+bbbbbbb",
"bbbbbbbxXX+ekbbbjeooovbbvg@oolvvbbbbli+oovbbbbbb",
"bbbbbbbbXX%vlbbbvvooovbbblXoylvvbbbblg7+oobbbbbb",
"bbbbbbbbXXvvvvbblvboobbbbvXXbvbbbbbbgk8ooovvbbbb",
"bbbbbvbvXXkvvvbblbbooobbvvXXbbbbbbbbulbbooovbbbb",
"bbbbbvb:XXvvbbbbbbbbooobv2XXbbbbbbbbkkbbv+oobbbb",
"bbbbvvb4XXvvbbbbbbbbboobv<XXbbbbbbvvdkbbv8oobbbb",
"bbbbbbbbbbbbbbbbbbbbbbbbvbbbbbbbbbbbbbbbbbbbbbbb",
"bbbbbbbbbbbbbbbbbbbbbbbbvbbbbbbbbbbbbbbbbbbbbbbb",
"bbbbbbbbbbbbbbbbbbbbbbbbbbbbbbbbbbbbbbbbbbbbbbbb",
"bbbbbbbbbbbbbbbbbbbbbbbbbbbbbbbbbbbbbbbbbbbbbbbb"
};
