/* XPM */
static char *ee98caf7eb0143d8e5a0d8dbac8cdf69ny5HbFBVagmUwgnR[] = {
/* columns rows colors chars-per-pixel */
"48 48 89 1 ",
"  c black",
". c #040404",
"X c #312D2B",
"o c #34302D",
"O c #37322F",
"+ c #393431",
"@ c #393531",
"# c #393732",
"$ c #393933",
"% c #3A3B33",
"& c #3A3F35",
"* c #344032",
"= c #3A4336",
"- c #3A4436",
"; c #3B4837",
": c #3B4838",
"> c #3B4A38",
", c #3B4E39",
"< c #3B4F3A",
"1 c #3C543B",
"2 c #3C543C",
"3 c #3C553C",
"4 c #3C593D",
"5 c #3C5A3D",
"6 c #3D5D3E",
"7 c #504738",
"8 c #3D6240",
"9 c #3A6640",
"0 c #3D6641",
"q c #3D6642",
"w c #3E6A43",
"e c #3E6B43",
"r c #3E6D44",
"t c #3E6F44",
"y c #3C7344",
"u c #3F7747",
"i c #3D7A47",
"p c #3F7A48",
"a c #3F7C48",
"s c #3F7F49",
"d c #595B52",
"f c #407A48",
"g c #417A48",
"h c #407B49",
"j c #407C48",
"k c #407E49",
"l c #467E4E",
"z c #8A6B35",
"x c #C64265",
"c c #3F814A",
"v c #40834B",
"b c #41874B",
"n c #40864C",
"m c #40884C",
"M c #418D4E",
"N c #41904F",
"B c #488250",
"V c #419250",
"C c #429751",
"Z c #459752",
"A c #429B53",
"S c #429C53",
"D c #439C53",
"F c #449C53",
"G c #469C55",
"H c #479C57",
"J c #489D54",
"K c #4B9A59",
"L c #4B9F5A",
"P c #5BA156",
"I c #6EA458",
"U c #55A362",
"Y c #60A56A",
"T c #C68B26",
"R c #AE9256",
"E c #B7965E",
"W c #89A95C",
"Q c #8BA95C",
"! c #A1AE5F",
"~ c #A3AE5F",
"^ c #A5AE5F",
"/ c #B0B060",
"( c #B8B261",
") c #C0B362",
"_ c #D1B664",
"` c #DDB765",
"' c #DFB966",
"] c #4F73B4",
"[ c white",
/* pixels */
"SSSSSSSSSSSSSSSSSSSSSSSSSSSSSSSSSSSSSSSSSSSSSSSS",
"SSSSSSSSSSSSSSSSSSSSSSSSSSSSSSSSSSSSSSSSSSSSSSSS",
"SSSSSSSSSSSSSSSSSSSSSSSSSSSSSSSSSSSSSSSSSSSSSSSS",
"SSSSSSSSSSSSSSSSSSSSSSSSSSSSSSSSSSSSSSSSSSSSSSSS",
"SSSSSSSSSSSSSSSSSSSSSSSSSSSSSnuMSSSSSSAAecNSSSSS",
"SSSSSSSSSSSSSSSSSSSSSSSSSSSSSs+=SSSSSSAA+0cSSSSS",
"SSSSSSSSSSSSSSSSSSSSSSSSSSSSSt++&4SSSSK+++iSSSSS",
"SSSSSSSSSSSSSSSSSSSSSSSSSSSSSe+E++SSSS++E+tSSSSS",
"SSSSSSSSSSSSSSSSSSSSSSSSSSSSSu+EE+ASSS+EE+tSSSSS",
"SSSSSSSSSSSSSSSSSSSSSSSSSSSSSh+zE+SSSS+Ez+iSSSSS",
"SSSSSSSSSSSSSSSSSSSSSSSSSSSSAn+zz+5;21+zz+hASSSS",
"SSSSSSSSSSSSSSSSSSSSSSSSSSSSAb++++++++++++hSSSSS",
"SSSSSSSSSSSSSSSSSSSSSSSSSSSSSv+++[[++++[[+sASSSS",
"SSSSSSSSSSSSSSSSSSSSSSSSSSSSSv+++[T++++[T+kASSSS",
"SSSSSSSSSSSSSSSSSSSSSSSSSSSSAv+++[T++++[T+iSSSSS",
"SSSSSSSSSSSSSSSSSSSSSSSSSSSSK+++++++++++++%%   S",
"SSSSSSSSSSSSSSSSSSSSSSSSSSSSl++++++++++++++++  S",
"SSSSSSSSSSSSSSSSSSSSSSSSSSAAgO+++++++++++++++.OS",
"SSSSSSSSSSSSSSSSSSSSSSSSSSSZ1++++++++++     ..+S",
"SSSSSSSSSSSSSSSSSSSSSSSSSSSh+++++++++++ x]]]xO;A",
"SSSSSSSSSSSSSSSSSSASSSASSFS5++++++++++++ [[[x%eA",
"SSSSSSSSSSSSSSSSSSAASSAAFSF++++++++++++++]]] ASA",
"SSSSSSSSSSSSScAcCNAAACute0,++++++++++++++]]]]]][",
"SSSSSSSSSSSp3--30888681%++++++++++++++++S[]]]]][",
"SSSSSSSSccD++++++++++++++++++++++++++++&SS[]]][S",
"SSSSSSSSD>=++%++++++++++++++++++++++++#4SScSSSSS",
"SSSSHVc>+++++++++++++++++++++++++'+++++4SSSSSSSS",
"SSSSHc&++++++++++++++++++++++++++'`++++1SSSSSSSS",
"DDULU&++++++++++++++++++++++++++R''#+#O,SSSSSSSS",
"DDUBd+++++++++++++++++++++++++++'''7+##-SSSSSSSS",
"DDG+++++++++++++++++++++++++++++'''`++$-SSSSSSSS",
"LcK+++''+++++++++++++++++++++++''''`++%3SSSSSSSS",
"SSc;+'ASS++++++++++++++++++++++'''''+++tAASSSSSS",
"SSc%+'SSS++++++++++++'''''+++++'''''+++tSSSSSSSS",
"SSL*+'SSS+++'''_'++++(''''+++++!!~PX++%pSSSSSSSS",
"SSSS+'SSS+++/WSSs+++(QGFAC~++++SSSSS++1SSSSSSSSS",
"SSSS%#'IS;++cSSSC++XbSSSSSF%+++SSSSAX+2cSSSSSSSS",
"SSSSO#+'S>+XoSSSA++XvmSSSSSN=+++SSSC++pFSSSSSSSS",
"SSSSS+++SiOXXSSS++XSbASSSSSF&%++SAA5+XCSSSSSSSSS",
"SSSSSSSSSStXXSSS++*SSSSSSSSCs=+++SCXXXCFSSSSSSSS",
"SSSSSSSSSSsXXXAS++iSSSSSSSACSA;+=cSXXASSSSSSSSSS",
"SSSSSSSSASNSXXSS++kSSSSSSSSSSSM+%%iXXASSSSSSSSSS",
"SSSSSSSSANSSXXXS++sSSSSSSSSASSS6##yXXASSSSSSSSSS",
"SSSSSSSSAcSSSXXS++ASSSSSSSSNASSm#+9oocSSSSSSSSSS",
"SSSSSSSSSSSSSSSSSSSSSSSSSSSSSSSSccLSSSSSSSSSSSSS",
"SSSSSSSSSSSSSSSSSSSSSSSSSSSSSSSSDDSSSSSSSSSSSSSS",
"SSSSSSSSSSSSSSSSSSSSSSSSSSSSSSSSSSSSSSSSSSSSSSSS",
"SSSSSSSSSSSSSSSSSSSSSSSSSSSSSSSSSSSSSSSSSSSSSSSS"
};
