/* XPM */
static char *_a1a92b041934a2de23ccf6cfb824d32FSOqjNE4L9w1ENNH[] = {
/* columns rows colors chars-per-pixel */
"48 48 8 1 ",
"  c #429C53",
". c #439D54",
"X c #4E77AB",
"o c #4D78A9",
"O c #4F73B3",
"+ c #4E75B0",
"@ c #4F73B4",
"# c white",
/* pixels */
"                                                ",
"                                                ",
"                                                ",
"                                                ",
"                                                ",
"                                                ",
"                                                ",
"                                                ",
"                                                ",
"                                                ",
"                                                ",
"                                                ",
"                                                ",
"                                                ",
"                                                ",
"                                                ",
"                                                ",
"                                                ",
"                 @@@@@@                         ",
"                 @@@@@@                         ",
"                 ######                         ",
"                 ######                         ",
"                 @@@@@@                         ",
"                 @@@@@@                         ",
"                 @@@@@@@@@@@@#                  ",
"                 #@@@@@@@@@@@#                  ",
"                 #@@@@@@@@@@@#                  ",
"                  #@@O++Xoo@#                   ",
"                   #@@@@@@@#                    ",
"                          .                     ",
"                                                ",
"                                                ",
"                                                ",
"                                                ",
"                                                ",
"                                                ",
"                                                ",
"                                                ",
"                                                ",
"                                                ",
"                                                ",
"                                                ",
"                                                ",
"                                                ",
"                                                ",
"                                                ",
"                                                ",
"                                                "
};
