/* XPM */
static char *f85bb298c3504cca82fc7e755022f745PeXVH5op0Z7qVsI8[] = {
/* columns rows colors chars-per-pixel */
"48 48 27 1 ",
"  c #0E0D0D",
". c #101310",
"X c #162217",
"o c #332F31",
"O c #69381A",
"+ c #417447",
"@ c #417A49",
"# c #E73333",
"$ c #C94545",
"% c #DD5050",
"& c #3E924E",
"* c #41824B",
"= c #42874D",
"- c #428D4E",
"; c #429150",
": c #429751",
"> c #4A9652",
", c #429A52",
"< c #439B53",
"1 c #459A53",
"2 c #429C53",
"3 c #525BA3",
"4 c #88898B",
"5 c #FCD4A0",
"6 c #FED6A7",
"7 c #C7CBEB",
"8 c #F8F8F8",
/* pixels */
"222222222222222222222222222<<2222222222222222222",
"222222222222222222222222222222222222222222222222",
"222222222222222222222222222222222222222222222222",
"2222222222222222,221<1<222   2222222222222222222",
"22222222222,22,         2#ooo 222222222222222222",
"22222222222,:  ooooooooo ##ooo 22222222222222222",
"22222222222> oooooooooooo ##ooo 2222222222222222",
"2222222222= oooooooooooooo #oooo 222222222222222",
"2222222222 oooooooooooooooo  oooo 22222222222222",
"222222222 ooooooooooooooooo   oooo 2222222222222",
"222222222* ooooooooooooooooo 2 ooo 2222222222222",
"2222222222 ooo5555555555oooo < ooo 2222222222222",
"22222222222 oo5555555555oooo << oo 2222222222222",
"22222222222 o55oo555oo555ooo5X< oo 2222222222222",
"22222222222 555O8555O8555o555 + oo 2222222222222",
"22222222222 555O8555O8555o555 = o 22222222222222",
"22222222222 55588555885555555 22 222222222222222",
"22222222222 5555555555555555 <222222222222222222",
"222222222222 5555555555555  # 222222222222222222",
"2222222222222 55555  5555 ###   2222222222222222",
"22222222222222 555555555 #%%%### 222222222222222",
"22222222222222  5555555 #%$$$$$$#  2222222222222",
"2222222222222 ##       #%$$$$$$###6 222222222222",
"2222222222222 #%#######%$$$$$$$#6666 -2222222222",
"2222222222222 #%%%%%%%%%$$$$$$$#66666 2222222222",
"2222222222222 ##%%%%%%%$$$$$$$#    666 222222222",
"222222222222 66####%%%%$$$$$$$# 222 666 ,,222222",
"22222222222 666    ##$$$$$$$$$# 2222 666 ,222222",
"2222222    666 2222 #$$$$$$$$$# 22222 666 222222",
"222222 666666 22222 #$$$$$$$$$# 2222 6666 222222",
"222222 566666 22222 #$$$$$$$$$# 222 66666 222222",
"222222 6  556 22222 ########### 2222 66  2222222",
"2222222 @.6  222222 33333333333 22222  222222222",
"222222222.  2222222 33333333333 2222222222222222",
"222222222;;222222  333333333333 2222222222222222",
"2222222222222222 33333    333333 222222222222222",
"2222222222222222 3333 2222 33333  22222222222222",
"22222222222222  3333 22222  333333 2222222222222",
"22222222222222 33333 2222222 33333 2222222222222",
"22222222222222 33333 22222222 33333 222222222222",
"22222222222222 33333 22222222 333333 22222222222",
"222222222222& 777777 22222222 7777777 2222222222",
"22222222222  7777777 22222222 7777777 2222222222",
"22222222222 44444444 22222222 4444444 2222222222",
"222222222222        2222222222       22222222222",
"222222222222222222222222222222222222222222222222",
"222222222222222222222222222222222222222222222222",
"222222222222222222222222222222222222222222222222"
};
