/* XPM */
static char *ec3afd5b48d4456bc975bf549ac6dae3olrhSlZGexuHw2N4[] = {
/* columns rows colors chars-per-pixel */
"48 48 28 1 ",
"  c #0E0D0D",
". c #0E0E0D",
"X c #10120F",
"o c #101310",
"O c #162217",
"+ c #332F31",
"@ c #69381A",
"# c #417447",
"$ c #417A49",
"% c #E73333",
"& c #C94545",
"* c #DD5050",
"= c #3E924E",
"- c #41824B",
"; c #42874D",
": c #428D4E",
"> c #429651",
", c #4A9652",
"< c #429B53",
"1 c #439B53",
"2 c #449A53",
"3 c #429C53",
"4 c #525BA3",
"5 c #88898B",
"6 c #FCD4A0",
"7 c #FED6A7",
"8 c #C7CBEB",
"9 c #F8F8F8",
/* pixels */
"333333333333333333333333333<<3333333333333333333",
"333333333333333333333333333333333333333333333333",
"3333333333333333333333<<333333333333333333333333",
"333333333333333333333<<<333333333333333333333333",
"3333333333333<2<<3<222<<<<...<<33333333333333333",
"3333333333333<3.........<%+++.333333333333333333",
"3333333333<>>..+++++++++.%%+++.<3333333333333333",
"3333333333<,.++++++++++++.%%+++.3333333333333333",
"3333333333;.++++++++++++++.%++++.<<3333333333333",
"3333333333.++++++++++++++++..++++.<<333333333333",
"33333333<.+++++++++++++++++. .++++.<333333333333",
"33333333<-.+++++++++++++++++ < +++.<333333333333",
"33333333<3.+++6666666666++++ <.+++.<333333333333",
"3333333333<.++6666666666++++ 2< ++.<333333333333",
"33333333333.+66++666++666+++6O2 ++.3333333333333",
"33333333333.666@9666@9666+666 # ++.3333333333333",
"3333333333<.666@9666@9666+666 ; +.<3333333333333",
"333333333<<.66699666996666666 <<.3<3333333333333",
"3333333333<.6666666666666666.<<<3333333333333333",
"3333333333<<.6666666666666  %.<<3333333333333333",
"3333333333333.66666  6666.%%%...<<33333333333333",
"333333333333<<.666666666.%***%%%.<33333333333333",
"333333333333<<..6666666 %*&&&&&&%..<333333333333",
"333333333333<.%%       %*&&&&&&%%%7.333<33333333",
"3333333333333.%*%%%%%%%*&&&&&&&%7777.:<<33333333",
"333333333333<.%*********&&&&&&&%77777.<<33333333",
"3333333333<<<.%%*******&&&&&&&% ...777.<33333333",
"333333333<<<.77%%%%****&&&&&&&% 3<<.777.>3333333",
"33333333<<<.777. ..%%&&&&&&&&&% 3333.777.<<<3333",
"333333<....777.3<<< %&&&&&&&&&% 3333<.777.3<3333",
"33333<.777777.33<<<.%&&&&&&&&&% 33<<.7777.333333",
"33333<.677777.3<<<<.%&&&&&&&&&% <<<.77777.333333",
"333333.7..667.<<<<<.%%%%%%%%%%% <<<<.77..<333333",
"333333<.$o7..<3<<<<.44444444444.<<33<..<<<333333",
"33333333<X..3333<...44444444444.3333333333333333",
"33333333<<<33333.44444....444444.333333333333333",
"3333333333333333.4444.33<<.44444..<<<<3333333333",
"33333333333333..4444.333<<..444444.<333333333333",
"333333333333<<.44444.<33<333.44444.<333333333333",
"333333333333<<.44444.<33<333<.44444.333333333333",
"3333333333333<.44444.<333333<.444444.<3333333333",
"3333333333<<=.888888.<333333<.8888888.3333333333",
"33333333333..8888888.<<33333<.8888888.3333333333",
"33333333333.55555555.<<3333<<.5555555.3333333333",
"333333333333........3333333333.......<3333333333",
"333333333333<<<<33<<3333333333<3<<<<333333333333",
"33333333333333<<333333333333333333<<333333333333",
"33333333333333333333333333333333333<333333333333"
};
