/* XPM */
static char *_c5e8620c9fd4e88c7de4829da63e4e8QYRvfEabToUYPBrx[] = {
/* columns rows colors chars-per-pixel */
"48 48 6 1 ",
"  c #633914",
". c #8B5E26",
"X c #A05D23",
"o c #439850",
"O c #429C53",
"+ c #BE8D3C",
/* pixels */
"OOOOOOOOOOOOOOOOOOOOOOOOOOOOOOOOOOOOOOOOOOOOOOOO",
"OOOOOOOOOOOOOOOOOOOOOOOOOOOOOOOOOOOOOOOOOOOOOOOO",
"OOOOOOOOOOOOOOOOOOOOOOOOOOOOOOOOOOOOOOOOOOOOOOOO",
"OOOOOOOOOOOOOOOOOOOOOOOOOOOOOOOOOOOOOOOOOOOOOOOO",
"OOOOOOOOOOOOOOOOOOOOOOOOOOOOOOOOOOOOOOOOOOOOOOOO",
"OOOOOOOOOOOOOOOOOOOOOOOOOOOOOOOOOOOOOOOOOOOOOOOO",
"OOOOOOOOOOOOOOOOO             OOOOOOOOOOOOOOOOOO",
"OOOOOOOOOOOOOOOO +++++++++++++ OOOOOOOOOOOOOOOOO",
"OOOOOOOOOOOOOOO +++XXXXXXXXX+++ OOOOOOOOOOOOOOOO",
"OOOOOOOOOOOOOO +++X+++++++++X+++ OOOOOOOOOOOOOOO",
"OOOOOOOOOOOOOO ++X+++++++++++X++ OOOOOOOOOOOOOOO",
"OOOOOOOOOOOOOO ++X+++XXXXX+++X++ OOOOOOOOOOOOOOO",
"OOOOOOOOOOOOOO ++X++X+++++X++X++ OOOOOOOOOOOOOOO",
"OOOOOOOOOOOOOO ++X++X++X++X++X++ OOOOOOOOOOOOOOO",
"OOOOOOOOOOOOOO ++X+++XX+++X++X++ OOOOOOOOOOOOOOO",
"OOOOOOOOOOOOOO +++X+++++++X+++++ OOOOOOOOOOOOOOO",
"OOOOOOOOOOOOOO .+++XXXXXXX+++++. OOOOOOOOOOOOOOO",
"OOOOOOOOOOOOOO +.+++++++++++++.+ OOOOOOOOOOOOOOO",
"OOOOOOOOOOOOOO ++.............++ OOOOOOOOOOOOOOO",
"OOOOOOOOOOOOOO +++++.+++++.+++++ OOOOOOOOOOOOOOO",
"OOOOOOOOOOOOOO +++++.+++++.+++++ OOOOOOOOOOOOOOO",
"OOOOOOOOOOOOOO +++++.+++++.+++++ OOOOOOOOOOOOOOO",
"OOOOOOOOOOOOOO +++++.+++++.+++++ OOOOOOOOOOOOOOO",
"OOOOOOOOOOOOOO +++++.+++++.+++++ OOOOOOOOOOOOOOO",
"OOOOOOOOOOOOOO +++++.+++++.+++++ OOOOOOOOOOOOOOO",
"OOOOOOOOOOOOOO +++++.+++++.+++++ OOOOOOOOOOOOOOO",
"OOOOOOOOOOOOOO +++++.+++++.+++++ OOOOOOOOOOOOOOO",
"OOOOOOOOOOOOOO +++++.+++++.+++++ OOOOOOOOOOOOOOO",
"OOOOOOOOOOOOOO +++++.+++++.+++++ OOOOOOOOOOOOOOO",
"OOOOOOOOOOOOOO +++++.+++++.+++++ OOOOOOOOOOOOOOO",
"OOOOOOOOOOOOOO +++++.+++++.+++++ OOOOOOOOOOOOOOO",
"OOOOOOOOOOOOOO +++++.+++++.+++++ OOOOOOOOOOOOOOO",
"OOOOOOOOOOOOOO +++++.+++++.+++++ OOOOOOOOOOOOOOO",
"OOOOOOOOOOOOOO +++++.+++++.+++++ OOOOOOOOOOOOOOO",
"OOOOOOOOOOOOOO +++++.+++++.+++++ OOOOOOOOOOOOOOO",
"OOOOOOOOOOOOOO +++++.+++++.+++++ OOOOOOOOOOOOOOO",
"OOOOOOOOOOOOOO +++++.+++++.+++++ OOOOOOOOOOOOOOO",
"OOOOOOOOOOOOOO +++++.+++++.+++++ OOOOOOOOOOOOOOO",
"OOOOOOOOOOOOOO +++++.+++++.+++++ OOOOOOOOOOOOOOO",
"OOOOOOOOOOOOOo +++++.+++++.+++++ OOOOOOOOOOOOOOO",
"OOOOOOOOOOOOOo +++++.+++++.+++++ OOOOOOOOOOOOOOO",
"OOOOOOOOOOOOOo +++++.+++++.+++++ OOOOOOOOOOOOOOO",
"OOOOOOOOOOOOOOO ++++.+++++.++++ OOOOOOOOOOOOOOOO",
"OOOOOOOOOOOOOOOO +++.+++++.+++ OOOOOOOOOOOOOOOOO",
"OOOOOOOOOOOOOOOOO             OOOOOOOOOOOOOOOOOO",
"OOOOOOOOOOOOOOOOOOOOOOOOOOOOOOOOOOOOOOOOOOOOOOOO",
"OOOOOOOOOOOOOOOOOOOOOOOOOOOOOOOOOOOOOOOOOOOOOOOO",
"OOOOOOOOOOOOOOOOOOOOOOOOOOOOOOOOOOOOOOOOOOOOOOOO"
};
